<?xml version="1.0" encoding="utf-8"?>
<!-- Generator: Adobe Illustrator 12.0.0, SVG Export Plug-In . SVG Version: 6.00 Build 51448)  -->
<!DOCTYPE svg PUBLIC "-//W3C//DTD SVG 1.1//EN" "http://www.w3.org/Graphics/SVG/1.1/DTD/svg11.dtd" [
	<!ENTITY ns_svg "http://www.w3.org/2000/svg">
	<!ENTITY ns_xlink "http://www.w3.org/1999/xlink">
]>
<svg  version="1.1" id="Layer_1" xmlns="&ns_svg;" xmlns:xlink="&ns_xlink;" width="600.044" height="300"
	 viewBox="0 0 600.044 300" overflow="visible" enable-background="new 0 0 600.044 300" xml:space="preserve">
<path fill-rule="evenodd" clip-rule="evenodd" d="M346.044,83C345.625,82.581,346.699,83.655,346.044,83L346.044,83z"/>
<path fill-rule="evenodd" clip-rule="evenodd" d="M364.044,90C363.625,89.581,364.699,90.655,364.044,90L364.044,90z"/>
<path fill-rule="evenodd" clip-rule="evenodd" d="M347.044,110C346.625,109.581,347.699,110.655,347.044,110L347.044,110z"/>
<path fill-rule="evenodd" clip-rule="evenodd" d="M301.044,114C300.625,113.581,301.699,114.655,301.044,114L301.044,114z"/>
<path fill-rule="evenodd" clip-rule="evenodd" d="M228.044,138C227.625,137.581,228.699,138.655,228.044,138L228.044,138z"/>
<path fill-rule="evenodd" clip-rule="evenodd" d="M184.044,149C183.625,148.581,184.699,149.655,184.044,149L184.044,149z"/>
<path fill-rule="evenodd" clip-rule="evenodd" d="M228.044,151C227.625,150.581,228.699,151.655,228.044,151L228.044,151z"/>
<path fill-rule="evenodd" clip-rule="evenodd" d="M181.044,202C180.625,201.581,181.699,202.655,181.044,202L181.044,202z"/>
<path fill-rule="evenodd" clip-rule="evenodd" d="M109.044,263C108.625,262.581,109.699,263.655,109.044,263L109.044,263z"/>
<path fill-rule="evenodd" clip-rule="evenodd" d="M1.044,0c199.667,0,399.333,0,599,0c0,100,0,200,0,300c-200,0-400,0-600,0
	c0-99,0-198,0-297C-0.042,1.581-0.121,0.168,1.044,0z M464.044,20c0.344-4.576,9.62-10.035,5-13
	C467.174,10.488,461.876,15.799,464.044,20z M454.044,31c-0.642-4.025,1.3-10.633-1-13c-3.438,6.563-0.036,19.964-8,22
	c-1.027-6.386,3.69-12.277,1-17c-4.866,8.134-2.001,23.999-10,29c-0.422-9.879,2.196-10.947,2-21c-10.175,4.158-2.604,26.063-13,30
	c-0.721-9.066,3.106-18.878,2-25c-9.478,7.522-1.784,32.216-15,36c2.159-8.507,3.631-17.702,4-28c-13.409,4.261-2.714,37.948-17,38
	c1.749-9.259,5.562-21.762,3-32c-11.987,6.683-3.67,38.993-17,41c1.786-12.981,3.649-19.709,4-34c-16.625,4.708-2,40.667-20,44
	c2.216-15.733,4.603-26.712,4-41c-17.263,9.681-2.285,48.761-24,52c3.461-13.539,6.427-27.574,6-45
	c-13.28,6.551-12.593,33.345-16,51c-3.413-0.03-7.185,4.749-10,2c4.596-13.738,6.602-30.065,6-49c-13.909,9.424-12.351,34.316-16,54
	c-2.978,2.022-5.854,4.146-11,4c4.619-15.716,6.22-39.777,7-56c-14.927,12.62-14.771,34.257-17,59c-3.012,2.321-6.108,4.559-11,5
	c3.831-17.836,4.784-38.549,7-58c-15.431,10.114-16.213,34.566-17,62c-5.611,0.723-7.847,4.82-14,5c7.33-15.522,5.442-38.836,8-61
	c-16.021,8.667-18.757,39.227-19,67c-5.584,1.082-7.591,5.742-14,6c6.326-17.009,5.983-46.015,5-67
	c-17.673,14.446-19.394,44.953-16,74c-4.981,1.703-10.148,8.496-16,6c8.344-16.976,4.924-48.187,7-74
	c-19.942,12.753-20.62,48.88-20,85c-4.751,1.915-6.881,6.452-13,7c10.59-22.104,0.806-54.112,3-83c-22.425,9.36-21.471,61.756-16,93
	c-5.571,4.762-8.954,11.713-18,13c9.11-31.928,0.802-67.627-3-96c-22.139,21.757-18.532,76.836-11,112
	c-15.6,18.104-37.295,35.222-52,54c-3.665,4.68-9.993,10.15-9,13c6,0,12,0,18,0c19.652-20.015,34.861-44.473,55-64
	c26.299,16.182,58.843,40.496,101,31c-26.056-16.156-52.837-37.605-89-42c5.7-5.634,10.521-12.146,18-16
	c22.228,18.982,50.553,44.148,89,35c-28.197-11.803-42.611-37.389-79-41c11.019-18.943,23.575-6.096,34,1
	c16.188,11.018,35.337,26.771,61,22c-20.916-15.751-39.195-34.139-68-42c4.697-3.97,9.571-7.763,16-10
	c19.039,15.104,37.051,36.087,70,34c-11.265-9.827-21.646-16.448-32-24c-3.677-2.682-6.552-7.347-11-10
	c-4.974-2.968-11.462-2.12-15-8c2.857-3.477,8.796-3.871,13-6c15.39,14.508,32.871,36.812,60,33c-18.021-11.313-29.579-29.088-51-37
	c3.483-3.517,8.97-5.03,14-7c14.91,13.09,24.79,31.21,50,34c-8.728-13.274-25.085-27.58-40-38c17.783-9.506,22.965,9.781,36,18
	c8.184,5.16,15.751,6.567,25,9c-9.552-15.115-24.312-25.021-39-35c4.988-0.012,6.419-3.581,12-3c14.611,8.649,29.782,26.526,50,23
	c-12.431-10.236-25.586-19.747-40-28c21.327-14.681,32.276,21.815,57,14c-11.633-8.648-19.963-18.127-37-23
	c16.612-16.239,30.259,16.921,54,9c-11.117-7.217-22.509-14.157-35-20c13.8-15.015,29.946,15.86,48,6
	c-9.592-6.408-20.549-11.451-33-15c9.175-18.275,27.643,11.326,44,1c-10.102-3.898-18.702-9.298-30-12c7.06-17.256,27.984,7.19,42-2
	c-7.425-7.035-23.184-2.145-28-10c6.555-9.914,28.047,3.979,37-5c-8.53-1.803-18.43-2.237-26-5c3.425-9.909,25.82-0.846,32-8
	c-6.87-1.37-17.068-0.457-22-1c4.495-9.505,22.613-5.387,28-14c-7.845-1.161-13.424,5.22-19,3c2.975-9.025,17.647-6.353,22-14
	c-6.063-0.706-9.724,6.243-14,4c1.416-6.059,13.799-11.343,13-13c-3.995,3.624-5.94,3.316-10,3
	C460.448,3.216,458.971,28.949,454.044,31z"/>
<path fill-rule="evenodd" clip-rule="evenodd" fill="#FFFFFF" d="M471.044,28c-6.063-0.706-9.724,6.243-14,4
	c1.416-6.059,13.799-11.343,13-13c-2.314,2.1-3.942,2.876-5.69,3.099l0.036-3.481c1.702-4.25,8.816-8.946,4.654-11.618
	c-1.557,2.903-5.475,7.069-5.498,10.807l-2.601,4.264c-0.29-0.022-0.588-0.046-0.901-0.071c0.404-18.784-1.073,6.949-6,9
	c-0.642-4.025,1.3-10.633-1-13c-3.438,6.563-0.036,19.964-8,22c-1.027-6.386,3.69-12.277,1-17c-4.866,8.134-2.001,23.999-10,29
	c-0.422-9.879,2.196-10.947,2-21c-10.175,4.158-2.604,26.063-13,30c-0.721-9.066,3.106-18.878,2-25c-9.478,7.522-1.784,32.216-15,36
	c2.159-8.507,3.631-17.702,4-28c-13.409,4.261-2.714,37.948-17,38c1.749-9.259,5.562-21.762,3-32c-11.987,6.683-3.67,38.993-17,41
	c1.786-12.981,3.649-19.709,4-34c-16.625,4.708-2,40.667-20,44c2.216-15.733,4.603-26.712,4-41c-17.263,9.681-2.285,48.761-24,52
	c3.461-13.539,6.427-27.574,6-45c-13.28,6.551-12.593,33.345-16,51c-3.413-0.03-7.185,4.749-10,2c4.596-13.738,6.602-30.065,6-49
	c-13.909,9.424-12.351,34.316-16,54c-2.978,2.022-5.854,4.146-11,4c4.619-15.716,6.22-39.777,7-56
	c-14.927,12.62-14.771,34.257-17,59c-3.012,2.321-6.108,4.559-11,5c3.831-17.836,4.784-38.549,7-58
	c-15.431,10.114-16.213,34.566-17,62c-5.611,0.723-7.847,4.82-14,5c7.33-15.522,5.442-38.836,8-61
	c-16.021,8.667-18.757,39.227-19,67c-5.584,1.082-7.591,5.742-14,6c6.326-17.009,5.983-46.015,5-67
	c-17.673,14.446-19.394,44.953-16,74c-4.981,1.703-10.148,8.496-16,6c8.344-16.976,4.924-48.187,7-74
	c-19.942,12.753-20.62,48.88-20,85c-4.751,1.915-6.881,6.452-13,7c10.59-22.104,0.806-54.112,3-83c-22.425,9.36-21.471,61.756-16,93
	c-5.571,4.762-8.954,11.713-18,13c9.11-31.928,0.802-67.627-3-96c-22.139,21.757-18.532,76.836-11,112
	c-15.6,18.104-37.295,35.222-52,54c-3.665,4.68-9.993,10.15-9,13h18c19.652-20.015,34.861-44.473,55-64
	c26.299,16.182,58.843,40.496,101,31c-26.056-16.156-52.837-37.605-89-42c5.7-5.634,10.521-12.146,18-16
	c22.228,18.982,50.553,44.148,89,35c-28.197-11.803-42.611-37.389-79-41c11.019-18.943,23.575-6.096,34,1
	c16.188,11.018,35.337,26.771,61,22c-20.916-15.751-39.195-34.139-68-42c4.697-3.97,9.571-7.763,16-10
	c19.039,15.104,37.051,36.087,70,34c-11.265-9.827-21.646-16.448-32-24c-3.677-2.682-6.552-7.347-11-10
	c-4.974-2.968-11.462-2.12-15-8c2.857-3.477,8.796-3.871,13-6c15.39,14.508,32.871,36.812,60,33c-18.021-11.313-29.579-29.088-51-37
	c3.483-3.517,8.97-5.03,14-7c14.91,13.09,24.79,31.21,50,34c-8.728-13.274-25.085-27.58-40-38c17.783-9.506,22.965,9.781,36,18
	c8.184,5.16,15.751,6.567,25,9c-9.552-15.115-24.312-25.021-39-35c4.988-0.012,6.419-3.581,12-3c14.611,8.649,29.782,26.526,50,23
	c-12.431-10.236-25.586-19.747-40-28c21.327-14.681,32.276,21.815,57,14c-11.633-8.648-19.963-18.127-37-23
	c16.612-16.239,30.259,16.921,54,9c-11.117-7.217-22.509-14.157-35-20c13.8-15.015,29.946,15.86,48,6
	c-9.592-6.408-20.549-11.451-33-15c9.175-18.275,27.643,11.326,44,1c-10.102-3.898-18.702-9.298-30-12c7.06-17.256,27.984,7.19,42-2
	c-7.425-7.035-23.184-2.145-28-10c6.555-9.914,28.047,3.979,37-5c-8.53-1.803-18.43-2.237-26-5c3.425-9.909,25.82-0.846,32-8
	c-6.87-1.37-17.068-0.457-22-1c4.495-9.505,22.613-5.387,28-14c-7.845-1.161-13.424,5.22-19,3
	C452.019,32.975,466.691,35.647,471.044,28z M109.044,263C109.699,263.655,108.625,262.581,109.044,263L109.044,263z M181.044,202
	C181.699,202.655,180.625,201.581,181.044,202L181.044,202z M346.044,83C345.625,82.581,346.699,83.655,346.044,83L346.044,83z
	 M347.044,110C346.625,109.581,347.699,110.655,347.044,110L347.044,110z M364.044,90C363.625,89.581,364.699,90.655,364.044,90
	L364.044,90z"/>
</svg>
